<svg width="44" height="34" viewBox="0 0 44 34" fill="none" xmlns="http://www.w3.org/2000/svg">
<path fill-rule="evenodd" clip-rule="evenodd" d="M19 5C19 4.44772 18.5523 4 18 4H4C1.79086 4 0 5.79086 0 8V30C0 32.2091 1.79086 34 4 34H30C32.2091 34 34 32.2091 34 30V25C34 24.4477 33.5523 24 33 24H32C31.4477 24 31 24.4477 31 25V30C31 30.5523 30.5523 31 30 31H4C3.44772 31 3 30.5523 3 30V8C3 7.44772 3.44772 7 4 7H18C18.5523 7 19 6.55228 19 6V5Z" fill="white"/>
<path fill-rule="evenodd" clip-rule="evenodd" d="M26.3293 19.1413L22.3728 13.6956L13.9973 17.0074C13.9973 17.0074 13.976 18.4095 12.3648 22.1802C10.7535 25.9509 10.0728 26.4455 10.0728 26.4455L18.5358 20.2968C18.2656 19.7029 18.4404 18.9813 18.9888 18.5829C19.6154 18.1276 20.4924 18.2665 20.9476 18.8931C21.4028 19.5197 21.2639 20.3967 20.6374 20.8519C20.088 21.251 19.3463 21.1935 18.865 20.751L10.4025 26.8993C10.4025 26.8993 10.9584 26.4954 15.1673 26.0376C19.3761 25.5798 20.5915 26.0835 20.5915 26.0835L26.3293 19.1413Z" fill="white"/>
<rect x="23.0127" y="12.1907" width="8.41403" height="1.40234" transform="rotate(54 23.0127 12.1907)" fill="#D9D9D9"/>
<rect x="23.0127" y="12.1907" width="8.41403" height="1.40234" transform="rotate(54 23.0127 12.1907)" stroke="white"/>
<path d="M38.2569 2.87245C38.7037 2.54783 39.3291 2.64688 39.6537 3.09368L41.6433 5.83212C41.9679 6.27893 41.8689 6.9043 41.4221 7.22892L26.7434 17.8936L23.5783 13.5371L38.2569 2.87245Z" fill="#D9D9D9"/>
</svg>
