<svg width="66" height="60" viewBox="0 0 66 60" fill="none" xmlns="http://www.w3.org/2000/svg">
<path fill-rule="evenodd" clip-rule="evenodd" d="M50.4007 0V0.000412992V2.99998V21.0003H53.4007V2.99998H62.3994V26.6289C60.679 24.9996 58.356 24.0003 55.7995 24.0003H53.3995V24.0006H14.9982V2.99998H14.9999V0H0V0.000436783V2.99998V24.0006V27.0006V56.9999V59.9999V60H2.99998V59.9999H11.9983V60H14.9982V59.9999H14.9999V56.9999H14.9982V36H50.4007V56.9999V59.9999V60H53.4007V59.9999H62.3994V60H65.3994V59.9999H65.4006V56.9999H65.3994L65.3994 33.6002C65.3994 33.5911 65.3994 33.582 65.3994 33.5729V2.99998H65.4006V0H50.4007ZM62.3994 33.5859C62.3917 29.9474 59.4398 27.0003 55.7995 27.0003H53.3996V27.0006H2.99998V56.9999H11.9983V36V33.0002V33H53.398V33.0002H53.4007V56.9999H62.3994V33.5859ZM2.99998 24.0006H11.9983V2.99998H2.99998V24.0006Z" fill="#FFD700"/>
</svg>
