<svg width="51" height="34" viewBox="0 0 51 34" fill="none" xmlns="http://www.w3.org/2000/svg">
<path fill-rule="evenodd" clip-rule="evenodd" d="M4.5 3H42.5931C43.1454 3 43.5931 3.44771 43.5931 4V5.53161H46.5931V4C46.5931 1.79086 44.8023 0 42.5931 0H4.5C2.29086 0 0.5 1.79086 0.5 4V27.3433C0.5 29.5525 2.29086 31.3433 4.5 31.3433H31.8431V28.3433H4.5C3.94772 28.3433 3.5 27.8956 3.5 27.3433V4C3.5 3.44772 3.94772 3 4.5 3Z" fill="white"/>
<path d="M24.7051 16.9219C25.3955 16.9219 25.9551 16.3622 25.9551 15.6719C25.9551 14.9815 25.3955 14.4219 24.7051 14.4219V16.9219ZM3.26514 16.9219H24.7051V14.4219H3.26514V16.9219Z" fill="white"/>
<path d="M15.3251 22.4531C16.0155 22.4531 16.5751 21.8935 16.5751 21.2031C16.5751 20.5128 16.0155 19.9531 15.3251 19.9531V22.4531ZM3.26514 22.4531H15.3251V19.9531H3.26514V22.4531Z" fill="white"/>
<rect x="6.03149" y="5.53149" width="7.3749" height="6.45304" rx="1" fill="white"/>
<rect x="35.5" y="9" width="14" height="24" rx="1" stroke="#D9D9D9" stroke-width="2"/>
<rect x="37.5" y="11" width="4" height="4" fill="white"/>
<rect x="42.5" y="11" width="5" height="4" fill="#D9D9D9"/>
<rect x="37.5" y="16" width="10" height="4" fill="#D9D9D9"/>
<rect x="37.5" y="21" width="5" height="4" fill="#D9D9D9"/>
<rect x="43.5" y="21" width="4" height="4" fill="white"/>
</svg>
